#!OML:ASF Y:\EmotionMaleHayes\Project 1\Capture day 1\Session 1\Male1.ASF
:FULLY-SPECIFIED
:DEGREES
80
root 2.72368 17.0162 -0.252761 -43.9673 78.6049 -44.0125
lowerback 9.90857 5.73188 7.77348
upperback -0.0630401 8.56777 0.402634
thorax -4.52343 4.07576 -4.98572
lowerneck -30.4557 -1.85313 0.505003
upperneck 20.5456 -3.09777 1.10458
head 11.7185 -1.1788 -0.231109
rclavicle 2.33572e-015 3.37934e-014
rhumerus -47.607 20.724 -97.418
rradius 111.294
rwrist -21.2858
rhand -31.2737 -23.4041
rfingers 7.12502
rthumb -4.54739 -53.3353
lclavicle 2.33572e-015 3.37934e-014
lhumerus -86.2896 -20.155 96.0381
lradius 98.5694
lwrist 24.0757
lhand -36.9887 -31.7033
lfingers 7.12502
lthumb -10.0638 -1.96395
rfemur 18.7534 5.96753 23.7714
rtibia 72.671
rfoot 1.15484 -7.1225
rtoes 25.1185
lfemur -18.7921 13.3139 -12.0455
ltibia 14.8396
lfoot 0.796646 6.02826
ltoes -0.911819
81
root 3.14417 16.8541 -0.269916 -44.465 79.307 -43.834
lowerback 10.6056 5.33796 7.19634
upperback 0.00196296 8.02818 0.30336
thorax -4.97862 3.79886 -4.80582
lowerneck -30.0872 -1.67683 0.481561
upperneck 20.4077 -2.89025 1.30301
head 11.6053 -1.06382 -0.111117
rclavicle 8.42847e-014 5.1684e-015
rhumerus -49.079 20.4778 -98.0836
rradius 110.29
rwrist -21.7019
rhand -30.4081 -24.2167
rfingers 7.12502
rthumb -3.71152 -54.1641
lclavicle 8.42847e-014 5.1684e-015
lhumerus -84.6227 -20.4302 96.0455
lradius 97.8409
lwrist 23.771
lhand -37.038 -31.8403
lfingers 7.12502
lthumb -10.1113 -2.1032
rfemur 18.1694 5.22941 22.679
rtibia 76.5304
rfoot 0.783903 -6.67228
rtoes 21.3969
lfemur -18.8046 14.7506 -13.5708
ltibia 18.8214
lfoot -1.59622 6.17579
ltoes 8.77889
82
root 3.54772 16.686 -0.292557 -43.5198 80.6319 -42.2869
lowerback 11.2813 4.74479 5.90361
upperback 0.15475 7.11578 0.196873
thorax -5.44911 3.36118 -4.17285
lowerneck -29.8526 -1.36323 0.377878
upperneck 20.119 -2.40969 1.33089
head 11.4536 -0.859224 0.00533478
rclavicle -4.15708e-014 -9.14409e-015
rhumerus -50.3008 20.8321 -98.5661
rradius 109.099
rwrist -21.8175
rhand -29.4732 -25.0002
rfingers 7.12502
rthumb -2.80869 -54.9614
lclavicle -4.15708e-014 -9.14409e-015
lhumerus -82.628 -20.0998 96.0024
lradius 97.1362
lwrist 23.3781
lhand -36.9143 -31.2449
lfingers 7.12502
lthumb -9.99195 -1.50209
rfemur 17.4786 4.14033 20.6524
rtibia 80.7009
rfoot 8.27186 14.3271
rtoes 19.7063
lfemur -19.4373 12.9131 -15.4205
ltibia 23.3697
lfoot -3.89557 5.86497
ltoes 12.7686
83
root 3.93461 16.5145 -0.311068 -41.9993 82.2116 -40.2284
lowerback 12.1353 4.12763 4.49373
upperback 0.212292 6.13949 -0.0488263
thorax -6.08726 2.89108 -3.60085
lowerneck -29.3637 -1.10001 0.231716
upperneck 19.5966 -2.02566 1.54758
head 11.1731 -0.677436 0.181064
rclavicle 1.71203e-014 9.14409e-015
rhumerus -51.6024 20.7932 -99.1428
rradius 107.761
rwrist -22.2058
rhand -28.8418 -24.9941
rfingers 7.12502
rthumb -2.19891 -54.9625
lclavicle 1.71203e-014 9.14409e-015
lhumerus -80.6554 -19.9463 95.8934
lradius 96.4912
lwrist 23.0399
lhand -36.7004 -30.8072
lfingers 7.12502
lthumb -9.78555 -1.05451
rfemur 16.6025 2.89915 18.3767
rtibia 84.8778
rfoot 17.8204 35.4594
rtoes 18.8691
lfemur -21.0041 9.43006 -17.4876
ltibia 29.216
lfoot -7.28629 8.43042
ltoes 10.6116
84
root 4.31062 16.3557 -0.310073 -33.4657 84.6048 -31.2902
lowerback 12.9442 3.63028 2.0403
upperback 0.270973 5.11362 -0.648671
thorax -6.72256 2.43556 -2.7705
lowerneck -28.9938 -0.979769 -0.00553874
upperneck 19.0131 -1.86869 2.02682
head 10.898 -0.56761 0.424648
rclavicle 1.69961e-014 -7.55382e-015
rhumerus -52.5462 20.0003 -99.547
rradius 106.15
rwrist -22.1101
rhand -27.872 -25.8287
rfingers 7.12502
rthumb -1.26232 -55.8048
lclavicle 1.69961e-014 -7.55382e-015
lhumerus -78.3238 -20.3405 95.7814
lradius 95.5403
lwrist 22.5947
lhand -36.4983 -30.8587
lfingers 7.12502
lthumb -9.59063 -1.09702
rfemur 15.5109 1.37909 15.1016
rtibia 87.5179
rfoot 35.4774 54.8606
rtoes 20.8853
lfemur -22.8857 5.84954 -20.7109
ltibia 35.2797
lfoot -10.8733 9.31692
ltoes 11.6088
85
root 4.68198 16.221 -0.291954 15.6559 86.7445 18.0043
lowerback 13.3478 3.30598 -2.26678
upperback 0.600871 3.99024 -1.58596
thorax -6.88592 2.01619 -1.16538
lowerneck -29.5944 -0.899345 -0.263003
upperneck 18.6535 -1.71802 2.31721
head 10.8701 -0.478827 0.597969
rclavicle -5.86415e-015 -5.96354e-015
rhumerus -52.8559 19.1402 -99.6405
rradius 104.146
rwrist -21.5339
rhand -27.2078 -26.4648
rfingers 7.12502
rthumb -0.620766 -56.4437
lclavicle -5.86415e-015 -5.96354e-015
lhumerus -75.0839 -20.9078 95.6071
lradius 94.4931
lwrist 22.2213
lhand -36.3605 -30.4323
lfingers 7.12502
lthumb -9.45764 -0.664522
rfemur 13.9166 -0.448354 9.92459
rtibia 87.5558
rfoot 76.8561 68.3696
rtoes 21.0395
lfemur -24.0424 2.83659 -25.7444
ltibia 39.8339
lfoot -13.7053 9.5139
ltoes 10.0842
86
root 5.05558 16.098 -0.279368 65.358 85.0078 67.5618
lowerback 13.294 3.04472 -6.37641
upperback 1.07288 3.03445 -2.43991
thorax -6.51802 1.67027 0.428661
lowerneck -30.8422 -0.765986 -0.373765
upperneck 18.3711 -1.47414 2.29098
head 10.971 -0.373565 0.648623
rclavicle -3.01656e-014 1.74931e-014
rhumerus -53.0004 18.4827 -99.5979
rradius 101.971
rwrist -21.0797
rhand -27.5497 -26
rfingers 7.12502
rthumb -0.951004 -55.9776
lclavicle -3.01656e-014 1.74931e-014
lhumerus -71.2974 -21.5088 95.2909
lradius 93.6884
lwrist 22.3281
lhand -36.6282 -29.3394
lfingers 7.12502
lthumb -9.71591 0.416519
rfemur 11.4812 -2.16982 4.96537
rtibia 85.0986
rfoot 135.272 63.2123
rtoes 18.533
lfemur -23.7462 2.12575 -30.3548
ltibia 41.6203
lfoot -15.2509 8.82847
ltoes 8.16925
87
root 5.43641 15.9877 -0.287273 80.0787 83.9032 82.0912
lowerback 13.3638 2.66057 -7.84953
upperback 1.39484 2.32483 -2.84487
thorax -6.21031 1.35811 0.964309
lowerneck -31.9319 -0.714127 -0.431201
upperneck 18.0663 -1.35366 2.24333
head 11.0345 -0.323178 0.662118
rclavicle 3.52346e-014 3.97569e-016
rhumerus -53.7115 17.48 -99.5436
rradius 99.9487
rwrist -20.5548
rhand -28.4607 -25.9047
rfingers 7.12502
rthumb -1.83088 -55.8765
lclavicle 3.52346e-014 3.97569e-016
lhumerus -67.63 -22.406 95.0548
lradius 92.7896
lwrist 22.4897
lhand -37.3599 -28.3344
lfingers 7.12502
lthumb -10.4218 1.38731
rfemur 8.8042 -3.85725 2.75181
rtibia 81.2563
rfoot 161.393 44.8893
rtoes 15.0693
lfemur -23.2171 1.83062 -32.4137
ltibia 42.9305
lfoot -16.8882 7.89082
ltoes 9.30284
88
root 5.82379 15.9026 -0.308252 86.7001 85.2958 89.0846
lowerback 13.9243 2.22375 -6.28958
upperback 1.78003 1.96607 -2.56358
thorax -6.0391 1.13761 0.454932
lowerneck -32.5456 -0.762147 -0.512855
upperneck 17.6367 -1.36785 2.25461
head 10.9731 -0.330432 0.676495
rclavicle 3.37934e-015 -1.82882e-014
rhumerus -54.7786 16.3572 -99.2895
rradius 98.0545
rwrist -19.7053
rhand -29.0319 -27.3946
rfingers 7.12502
rthumb -2.38248 -57.361
lclavicle 3.37934e-015 -1.82882e-014
lhumerus -63.9631 -23.4988 94.9348
lradius 91.609
lwrist 22.5635
lhand -38.2284 -28.8539
lfingers 7.12502
lthumb -11.2595 0.823906
rfemur 6.6068 -5.24108 4.29376
rtibia 77.5991
rfoot 172.321 23.5015
rtoes 12.5499
lfemur -21.7146 2.05706 -30.9493
ltibia 43.6002
lfoot -18.3569 7.16868
ltoes 10.0456
89
root 6.21574 15.8577 -0.333951 99.4735 85.8079 101.788
lowerback 13.8813 1.73908 -5.5226
upperback 1.96711 1.45981 -2.49348
thorax -5.77018 0.867014 0.204725
lowerneck -32.5606 -0.717088 -0.410171
upperneck 17.1307 -1.33846 2.26924
head 10.7839 -0.308936 0.669509
rclavicle -6.5102e-015 -3.97569e-016
rhumerus -56.1054 15.4727 -99.0389
rradius 96.1134
rwrist -18.9432
rhand -29.3259 -29.2089
rfingers 7.12502
rthumb -2.66649 -59.172
lclavicle -6.5102e-015 -3.97569e-016
lhumerus -60.5226 -24.6091 94.7768
lradius 90.4438
lwrist 22.9701
lhand -38.9662 -31.089
lfingers 7.12502
lthumb -11.9711 -1.45134
rfemur 4.2343 -6.66899 4.83558
rtibia 74.7987
rfoot 173.001 20.1838
rtoes 11.9679
lfemur -20.2003 1.8829 -30.5395
ltibia 43.8626
lfoot -19.7029 6.62795
ltoes 9.28663
90
root 6.59902 15.8401 -0.35933 104.157 84.8232 106.097
lowerback 13.452 1.44965 -6.40499
upperback 2.02609 0.981616 -2.80357
thorax -5.45574 0.646711 0.472262
lowerneck -32.1126 -0.526635 -0.225598
upperneck 16.486 -1.18241 2.44327
head 10.4701 -0.207015 0.729095
rclavicle 1.44119e-014 -3.49861e-014
rhumerus -57.589 14.6993 -98.922
rradius 94.2014
rwrist -18.6359
rhand -29.5941 -31.1548
rfingers 7.12502
rthumb -2.92545 -61.1145
lclavicle 1.44119e-014 -3.49861e-014
lhumerus -57.2668 -25.559 94.4968
lradius 89.4926
lwrist 23.3737
lhand -39.4389 -33.0591
lfingers 7.12502
lthumb -12.4269 -3.44852
rfemur 1.41478 -7.63656 3.70763
rtibia 72.2678
rfoot 173.646 17.5637
rtoes 12.7218
lfemur -18.7765 1.75099 -31.8552
ltibia 43.9673
lfoot -21.1053 6.20957
ltoes 7.83655
